<?xml version="1.0" encoding="UTF-8"?>
<svg width="25px" height="27px" viewBox="0 0 25 27" version="1.1" xmlns="http://www.w3.org/2000/svg" xmlns:xlink="http://www.w3.org/1999/xlink">
    <!-- Generator: sketchtool 40.3 (33839) - http://www.bohemiancoding.com/sketch -->
    <title>2195F073-FCAE-4417-A0B7-745397E0B35A</title>
    <desc>Created with sketchtool.</desc>
    <defs>
        <polygon id="path-1" points="0 26.9332347 24.9229167 26.9332347 24.9229167 0 0 0"></polygon>
    </defs>
    <g id="Home" stroke="none" stroke-width="1" fill="none" fill-rule="evenodd">
        <g id="reserve" transform="translate(-694.000000, -638.000000)">
            <g id="Lock-in-block" transform="translate(398.000000, 266.000000)">
                <g id="fill-fields" transform="translate(20.000000, 240.000000)">
                    <g id="calendar_icn" transform="translate(276.000000, 132.000000)">
                        <path d="M1.49456522,4.2913102 C1.32273551,4.2913102 1.17753623,4.43852449 1.17753623,4.61273878 L1.17753623,25.4178918 C1.17753623,25.592198 1.32273551,25.7393204 1.49456522,25.7393204 L23.4283514,25.7393204 C23.6001812,25.7393204 23.7453804,25.592198 23.7453804,25.4178918 L23.7453804,4.61273878 C23.7453804,4.43852449 23.6001812,4.2913102 23.4283514,4.2913102 L1.49456522,4.2913102 L1.49456522,4.2913102 Z M23.4283514,26.933198 L1.49456522,26.933198 C0.670471014,26.933198 0,26.2534224 0,25.4178918 L0,4.61273878 C0,3.77720816 0.670471014,3.09743265 1.49456522,3.09743265 L23.4283514,3.09743265 C24.2524457,3.09743265 24.9229167,3.77720816 24.9229167,4.61273878 L24.9229167,25.4178918 C24.9229167,26.2534224 24.2524457,26.933198 23.4283514,26.933198 L23.4283514,26.933198 Z" id="Fill-1" fill="#F90000"></path>
                        <mask id="mask-2" fill="white">
                            <use xlink:href="#path-1"></use>
                        </mask>
                        <g id="Clip-4"></g>
                        <polygon id="Fill-3" fill="#F90000" mask="url(#mask-2)" points="0.466394928 11.1728571 24.0485507 11.1728571 24.0485507 9.97897959 0.466394928 9.97897959"></polygon>
                        <path d="M6.89754529,5.37245816 C6.89754529,6.03184592 6.37037138,6.56633571 5.72000906,6.56633571 C5.06964674,6.56633571 4.54247283,6.03184592 4.54247283,5.37245816 L4.54247283,1.79082551 C4.54247283,1.13143776 5.06964674,0.596947959 5.72000906,0.596947959 C6.37037138,0.596947959 6.89754529,1.13143776 6.89754529,1.79082551 L6.89754529,5.37245816 Z" id="Fill-5" fill="#FFFFFF" mask="url(#mask-2)"></path>
                        <path d="M5.72000906,1.19388673 C5.39537138,1.19388673 5.13124094,1.46168265 5.13124094,1.79082551 L5.13124094,5.37245816 C5.13124094,5.70160102 5.39537138,5.96939694 5.72000906,5.96939694 C6.04464674,5.96939694 6.30877717,5.70160102 6.30877717,5.37245816 L6.30877717,1.79082551 C6.30877717,1.46168265 6.04464674,1.19388673 5.72000906,1.19388673 M5.72000906,7.16327449 C4.74609601,7.16327449 3.95370471,6.35988673 3.95370471,5.37245816 L3.95370471,1.79082551 C3.95370471,0.803305102 4.74609601,9.18367346e-06 5.72000906,9.18367346e-06 C6.6939221,9.18367346e-06 7.48631341,0.803305102 7.48631341,1.79082551 L7.48631341,5.37245816 C7.48631341,6.35988673 6.6939221,7.16327449 5.72000906,7.16327449" id="Fill-6" fill="#F90000" mask="url(#mask-2)"></path>
                        <path d="M20.3939221,5.37245816 C20.3939221,6.03184592 19.8667482,6.56633571 19.2163859,6.56633571 C18.5660236,6.56633571 18.0388496,6.03184592 18.0388496,5.37245816 L18.0388496,1.79082551 C18.0388496,1.13143776 18.5660236,0.596947959 19.2163859,0.596947959 C19.8667482,0.596947959 20.3939221,1.13143776 20.3939221,1.79082551 L20.3939221,5.37245816 Z" id="Fill-7" fill="#FFFFFF" mask="url(#mask-2)"></path>
                        <path d="M19.2163859,1.19388673 C18.8917482,1.19388673 18.6276178,1.46168265 18.6276178,1.79082551 L18.6276178,5.37245816 C18.6276178,5.70160102 18.8917482,5.96939694 19.2163859,5.96939694 C19.5410236,5.96939694 19.805154,5.70160102 19.805154,5.37245816 L19.805154,1.79082551 C19.805154,1.46168265 19.5410236,1.19388673 19.2163859,1.19388673 M19.2163859,7.16327449 C18.2424728,7.16327449 17.4500815,6.35988673 17.4500815,5.37245816 L17.4500815,1.79082551 C17.4500815,0.803305102 18.2424728,9.18367346e-06 19.2163859,9.18367346e-06 C20.1902989,9.18367346e-06 20.9826902,0.803305102 20.9826902,1.79082551 L20.9826902,5.37245816 C20.9826902,6.35988673 20.1902989,7.16327449 19.2163859,7.16327449" id="Fill-8" fill="#F90000" mask="url(#mask-2)"></path>
                    </g>
                </g>
            </g>
        </g>
    </g>
</svg>