<?xml version="1.0" encoding="UTF-8"?>
<svg width="21px" height="21px" viewBox="0 0 21 21" version="1.1" xmlns="http://www.w3.org/2000/svg" xmlns:xlink="http://www.w3.org/1999/xlink">
    <!-- Generator: sketchtool 40.3 (33839) - http://www.bohemiancoding.com/sketch -->
    <title>E23C78AC-824C-4FB4-8242-550473601ABC</title>
    <desc>Created with sketchtool.</desc>
    <defs></defs>
    <g id="Home" stroke="none" stroke-width="1" fill="none" fill-rule="evenodd">
        <g id="location-ozone-park_sizing_guide" transform="translate(-1059.000000, -728.000000)" fill="#FF0500">
            <g id="sizing_guide" transform="translate(178.000000, 703.000000)">
                <path d="M902,28 C902,28 902,28 902,29 L895,35 L895,36 L902,42 L902,43 L899,46 C899,46 899,46 898,46 L892,39 L891,39 L885,46 L883,46 L881,43 C881,43 881,43 881,42 L887,36 C888,36 888,35 887,35 L881,29 L881,28 L883,25 L885,25 L891,32 L892,32 L898,25 L899,25 L902,28 L902,28 Z" id="close"></path>
            </g>
        </g>
    </g>
</svg>