<?xml version="1.0" encoding="UTF-8"?>
<svg width="30px" height="16px" viewBox="0 0 30 16" version="1.1" xmlns="http://www.w3.org/2000/svg" xmlns:xlink="http://www.w3.org/1999/xlink">
    <!-- Generator: sketchtool 39.1 (31720) - http://www.bohemiancoding.com/sketch -->
    <title>98D9D17C-83FA-4FE3-BF38-258EA769ECA9</title>
    <desc>Created with sketchtool.</desc>
    <defs></defs>
    <g id="Home" stroke="none" stroke-width="1" fill="none" fill-rule="evenodd">
        <g id="home_active_dropdown" transform="translate(-396.000000, -681.000000)">
            <g id="Active-Drop-down" transform="translate(382.000000, 442.000000)">
                <g id="DROPDOWN-CENTER" transform="translate(0.000000, 48.000000)">
                    <g id="icon-truck" transform="translate(14.000000, 191.000000)">
                        <g id="truck">
                            <path d="M21.2277391,12.5291973 C21.2276304,12.5299661 21.2277391,12.5306252 21.2276304,12.5313941 C21.1727391,13.1731881 20.6405652,13.6770233 19.9913261,13.6770233 C19.342087,13.6770233 18.809913,13.1731881 18.7550217,12.5313941 C18.754913,12.5306252 18.7550217,12.5299661 18.754913,12.5291973 C18.7519783,12.4939387 18.749587,12.4583506 18.749587,12.4222133 C18.749587,11.729124 19.3055652,11.1672934 19.9913261,11.1672934 C20.677087,11.1672934 21.2330652,11.729124 21.2330652,12.4222133 C21.2330652,12.4583506 21.2306739,12.4939387 21.2277391,12.5291973 L21.2277391,12.5291973 Z M7.67904348,7.76643295 C7.67904348,7.87561373 7.59143478,7.96414462 7.4833913,7.96414462 L5.44632609,7.96414462 C5.38654348,7.96414462 5.33176087,7.998854 5.30578261,8.05311487 L5.14632609,8.38483112 C5.09426087,8.49335286 4.98469565,8.56266178 4.86523913,8.56266178 L3.69871739,8.56266178 C3.60817391,8.56266178 3.54893478,8.46710114 3.5883913,8.38483112 L4.30045652,6.90067551 L4.84306522,5.89432311 C4.90067391,5.78755881 5.01208696,5.7207762 5.13230435,5.7207762 L7.4833913,5.7207762 C7.59143478,5.7207762 7.67904348,5.80919725 7.67904348,5.91837803 L7.67904348,7.76643295 Z M6.43545652,12.5315039 L6.43545652,12.5315039 C6.38045652,13.1732979 5.84828261,13.6770233 5.19904348,13.6770233 C4.54980435,13.6770233 4.01763043,13.1732979 3.96263043,12.5316137 L3.96263043,12.5315039 C3.95958696,12.4953666 3.95719565,12.4591195 3.95719565,12.4222133 C3.95719565,11.729124 4.51328261,11.1672934 5.19904348,11.1672934 C5.88491304,11.1672934 6.4408913,11.729124 6.4408913,12.4222133 C6.4408913,12.4591195 6.4385,12.4953666 6.43545652,12.5315039 L6.43545652,12.5315039 Z M25.3388261,10.0112293 L24.8190435,10.0112293 L24.8190435,10.0037602 L24.4117609,10.0037602 L24.4117609,0.00745812357 L10.5702391,0.00745812357 C10.4621957,0.00745812357 10.374587,0.095989016 10.374587,0.205169794 L10.374587,10.0112293 L9.27643478,10.0112293 L9.27643478,4.30417208 C9.27643478,4.1949913 9.18882609,4.10646041 9.08078261,4.10646041 L4.1833913,4.10646041 C4.06317391,4.10646041 3.95165217,4.17335286 3.89415217,4.28011716 L1.21523913,9.24949016 C1.15382609,9.36328421 1.12165217,9.4912476 1.12165217,9.62085858 L1.12165217,10.0112293 L0.425891304,10.0112293 C0.309586957,10.0112293 0.202956522,10.0832842 0.168173913,10.1953208 C-0.0566086957,10.9183963 -0.0560652174,11.6302682 0.170021739,12.3534535 C0.204478261,12.4636229 0.311434783,12.5316137 0.425891304,12.5316137 L2.3858913,12.5316137 C2.44284783,14.0524558 3.68023913,15.2677236 5.19904348,15.2677236 C6.71784783,15.2677236 7.95534783,14.0524558 8.01219565,12.5315039 L17.1781739,12.5313941 C17.2350217,14.052346 18.472413,15.2677236 19.9913261,15.2677236 C21.5102391,15.2677236 22.7476304,14.0522362 22.8044783,12.5313941 L25.3388261,12.5312842 C25.4523043,12.5312842 25.5564348,12.459449 25.5851304,12.3485108 C25.7753478,11.6111561 25.7757826,10.9370691 25.5866522,10.2000439 C25.5576304,10.0872384 25.4541522,10.0112293 25.3388261,10.0112293 L25.3388261,10.0112293 Z" id="Fill-7" fill="#C1C1C1"></path>
                            <path d="M27.578587,5.79646682 L27.9053261,5.50385355 C27.988587,5.42927231 28.0367391,5.32151945 28.0367391,5.20893364 C28.0367391,5.09645767 27.988587,4.98859497 27.9053261,4.91401373 L27.578587,4.6215103 C27.4844565,4.53726316 27.3622826,4.49036156 27.2365217,4.49036156 L25.3555435,4.49036156 L25.3555435,5.92750572 L27.2365217,5.92750572 C27.3622826,5.92750572 27.4844565,5.88071396 27.578587,5.79646682" id="Fill-1" fill="#C2C2C2"></path>
                            <path d="M29.8065217,2.39331076 L29.4998913,2.12947551 C29.403913,2.04687597 29.2813043,2.00129245 29.1553261,2.00129245 L25.3555435,2.00129245 L25.3555435,3.43843661 L29.1553261,3.43843661 C29.2813043,3.43843661 29.403913,3.39285309 29.4998913,3.31025355 L29.8065217,3.04641831 C29.9007609,2.96524668 29.9554348,2.84563112 29.9554348,2.72052357 C29.9554348,2.59497666 29.901087,2.47470206 29.8065217,2.39331076" id="Fill-3" fill="#C2C2C2"></path>
                            <path d="M29.6101522,7.14291625 L29.3129783,6.90577208 C29.2136304,6.82668741 29.0901522,6.78330069 28.9636304,6.78330069 L25.3554783,6.78330069 L25.3554783,8.22055469 L28.9636304,8.22055469 C29.0901522,8.22055469 29.2136304,8.1772778 29.3129783,8.0980833 L29.6101522,7.86093913 C29.707,7.78383158 29.7638478,7.66531442 29.7638478,7.54075606 L29.7638478,7.46309931 C29.7638478,7.33854096 29.707,7.2200238 29.6101522,7.14291625" id="Fill-5" fill="#C2C2C2"></path>
                        </g>
                    </g>
                </g>
            </g>
        </g>
    </g>
</svg>