<?xml version="1.0" encoding="UTF-8"?>
<svg width="15px" height="14px" viewBox="0 0 15 14" version="1.1" xmlns="http://www.w3.org/2000/svg" xmlns:xlink="http://www.w3.org/1999/xlink">
    <!-- Generator: sketchtool 39.1 (31720) - http://www.bohemiancoding.com/sketch -->
    <title>ADF56FEA-433E-4F56-9DE5-5EE70BD36ECE</title>
    <desc>Created with sketchtool.</desc>
    <defs></defs>
    <g id="Symbols" stroke="none" stroke-width="1" fill="none" fill-rule="evenodd">
        <g id="Footer" transform="translate(-1131.000000, -50.000000)" fill="#FFFFFF">
            <g id="button-reserve-now" transform="translate(1123.000000, 35.000000)">
                <path d="M8,20.5500508 C8,23.051225 9.34580645,25.1781359 11.64,25.8627638 C11.6219355,25.9449192 11.6129032,26.0179462 11.6129032,26.1001015 L11.6129032,28.0535734 C11.6129032,28.7108162 12.0735484,28.7564581 12.5432258,28.2909111 L15.2258065,25.9540476 L16.8696774,25.9540476 C19.9496774,25.9540476 22.4516129,23.4711301 22.4516129,20.4039968 C22.4516129,17.3368635 19.9496774,15 16.8696774,15 L13.5819355,15 C10.5019355,15 8,17.4829175 8,20.5500508 L8,20.5500508 Z M11.6129032,18.6513492 L18.8387097,18.6513492 L18.8387097,19.5641865 L11.6129032,19.5641865 L11.6129032,18.6513492 L11.6129032,18.6513492 Z M11.6129032,20.4770238 L18.8387097,20.4770238 L18.8387097,21.3898611 L11.6129032,21.3898611 L11.6129032,20.4770238 L11.6129032,20.4770238 Z M11.6129032,22.3026984 L16.1290323,22.3026984 L16.1290323,23.2155357 L11.6129032,23.2155357 L11.6129032,22.3026984 L11.6129032,22.3026984 Z" id="Shape"></path>
            </g>
        </g>
    </g>
</svg>