<?xml version="1.0" encoding="UTF-8"?>
<svg width="16px" height="15px" viewBox="0 0 16 15" version="1.1" xmlns="http://www.w3.org/2000/svg" xmlns:xlink="http://www.w3.org/1999/xlink">
    <!-- Generator: sketchtool 39.1 (31720) - http://www.bohemiancoding.com/sketch -->
    <title>13C72D7B-C79E-428C-8515-B1EA9966698A</title>
    <desc>Created with sketchtool.</desc>
    <defs></defs>
    <g id="Symbols" stroke="none" stroke-width="1" fill="none" fill-rule="evenodd">
        <g id="NAV-v1" transform="translate(-868.000000, -51.000000)" fill="#EE1715">
            <path d="M868,57.1213795 C868,59.8800275 869.49,62.2258852 872.03,62.9809895 C872.01,63.0716021 872,63.1521465 872,63.2427591 L872,65.3973236 C872,66.1222238 872.51,66.1725641 873.03,65.6590931 L876,63.0816701 L877.82,63.0816701 C881.23,63.0816701 884,60.3431582 884,56.9602906 C884,53.577423 881.23,51 877.82,51 L874.18,51 C870.77,51 868,53.7385119 868,57.1213795 L868,57.1213795 Z M872,55.0272234 L880,55.0272234 L880,56.0340292 L872,56.0340292 L872,55.0272234 L872,55.0272234 Z M872,57.0408351 L880,57.0408351 L880,58.0476409 L872,58.0476409 L872,57.0408351 L872,57.0408351 Z M877,59.0544467 L877,60.0612526 L872,60.0612526 L872,59.0544467 L877,59.0544467 Z" id="live_chat_icn"></path>
        </g>
    </g>
</svg>