<?xml version="1.0" encoding="UTF-8"?>
<svg width="14px" height="14px" viewBox="0 0 14 14" version="1.1" xmlns="http://www.w3.org/2000/svg" xmlns:xlink="http://www.w3.org/1999/xlink">
    <!-- Generator: sketchtool 40.3 (33839) - http://www.bohemiancoding.com/sketch -->
    <title>006AB575-EDBE-4137-96AE-EA8B65AF9841</title>
    <desc>Created with sketchtool.</desc>
    <defs></defs>
    <g id="Home" stroke="none" stroke-width="1" fill="none" fill-rule="evenodd">
        <g id="content-page" transform="translate(-97.000000, -175.000000)" fill="#393939">
            <g id="Find_storage_block" transform="translate(68.000000, 116.000000)">
                <g id="search" transform="translate(18.000000, 49.000000)">
                    <g id="search_icon" transform="translate(11.000000, 10.000000)">
                        <g id="Capa_1">
                            <path d="M9.11941935,1.56246774 C7.03612903,-0.520822581 3.64541935,-0.520822581 1.56212903,1.56246774 C-0.520709677,3.64620968 -0.520709677,7.03646774 1.56212903,9.12020968 C3.41735484,10.9749839 6.30677419,11.1736935 8.38870968,9.72537097 C8.43251613,9.93266129 8.53277419,10.1304677 8.694,10.2916935 L11.7279355,13.325629 C12.1700645,13.7668548 12.8845161,13.7668548 13.3243871,13.325629 C13.7660645,12.8839516 13.7660645,12.1695 13.3243871,11.7291774 L10.2904516,8.69433871 C10.130129,8.53446774 9.93187097,8.43375806 9.72458065,8.38995161 C11.1738065,6.30756452 10.9750968,3.41859677 9.11941935,1.56246774 L9.11941935,1.56246774 Z M8.16154839,8.16233871 C6.60619355,9.71769355 4.07490323,9.71769355 2.52,8.16233871 C0.965548387,6.60698387 0.965548387,4.07614516 2.52,2.52079032 C4.07490323,0.965887097 6.60619355,0.965887097 8.16154839,2.52079032 C9.71690323,4.07614516 9.71690323,6.60698387 8.16154839,8.16233871 L8.16154839,8.16233871 Z" id="Shape"></path>
                        </g>
                    </g>
                </g>
            </g>
        </g>
    </g>
</svg>