<?xml version="1.0" encoding="UTF-8"?>
<svg width="11px" height="9px" viewBox="0 0 11 9" version="1.1" xmlns="http://www.w3.org/2000/svg" xmlns:xlink="http://www.w3.org/1999/xlink">
    <!-- Generator: sketchtool 39.1 (31720) - http://www.bohemiancoding.com/sketch -->
    <title>1B24270C-C154-4B42-AF27-7A9E7D233DD0</title>
    <desc>Created with sketchtool.</desc>
    <defs></defs>
    <g id="Symbols" stroke="none" stroke-width="1" fill="none" fill-rule="evenodd">
        <g id="item-locations-page-video-copy-2" transform="translate(-320.000000, -23.000000)" fill="#EE1715">
            <g id="Group-3">
                <g id="Group-4" transform="translate(320.000000, 12.000000)">
                    <path d="M0.178875595,14.9517918 C-0.06860011,15.2130099 -0.0548514597,15.7354461 0.192624246,15.9897901 L3.21045299,19.0487915 C3.46480302,19.3100096 3.97350308,19.3168837 4.23472743,19.0694139 L4.71593019,18.6088452 L5.75395329,17.6120919 L10.799708,12.8001796 C11.0609323,12.5527098 11.0678066,12.0440219 10.8134566,11.789678 L10.229139,11.1916261 C9.97478893,10.9372821 9.46608887,10.9372821 9.21173884,11.1847519 L4.27597338,16.1135249 C4.02162335,16.3678689 3.51292329,16.3609947 3.26544759,16.1066508 L1.62248388,14.4499781 C1.37500817,14.18876 0.880056761,14.1956342 0.632581055,14.4637264 L0.178875595,14.9517918 L0.178875595,14.9517918 Z" id="Shape"></path>
                </g>
            </g>
        </g>
    </g>
</svg>