<?xml version="1.0" encoding="UTF-8"?>
<svg width="12px" height="7px" viewBox="0 0 12 7" version="1.1" xmlns="http://www.w3.org/2000/svg" xmlns:xlink="http://www.w3.org/1999/xlink">
    <!-- Generator: sketchtool 40.1 (33804) - http://www.bohemiancoding.com/sketch -->
    <title>87AC9F80-AD66-4E08-9AFF-A1E97CACC6D4</title>
    <desc>Created with sketchtool.</desc>
    <defs></defs>
    <g id="Home" stroke="none" stroke-width="1" fill="none" fill-rule="evenodd">
        <g id="iPhone-6---location-ozone-park" transform="translate(-146.000000, -1092.000000)" fill="#FFFFFF">
            <g id="main-part" transform="translate(15.000000, 110.000000)">
                <g id="description" transform="translate(0.000000, 920.000000)">
                    <g id="selector1_mobile" transform="translate(15.000000, 43.000000)">
                        <g id="down-arrow-2_mobile" transform="translate(116.000000, 19.000000)">
                            <path d="M11.8772187,0.1352657 C11.7118266,-0.0450885668 11.4430645,-0.0450885668 11.2776724,0.1352657 L6.00579988,5.89533011 L0.723590347,0.1352657 C0.558198268,-0.0450885668 0.289436139,-0.0450885668 0.124044059,0.1352657 C-0.0413480198,0.315619968 -0.0413480198,0.608695652 0.124044059,0.789049919 L5.69568973,6.8647343 C5.77838577,6.95491143 5.88175582,7 5.99546287,7 C6.09883292,7 6.21253998,6.95491143 6.29523602,6.8647343 L11.8668817,0.789049919 C12.0426108,0.608695652 12.0426108,0.315619968 11.8772187,0.1352657 L11.8772187,0.1352657 Z" id="Shape"></path>
                        </g>
                    </g>
                </g>
            </g>
        </g>
    </g>
</svg>