<?xml version="1.0" encoding="UTF-8"?>
<svg width="103px" height="103px" viewBox="0 0 103 103" version="1.1" xmlns="http://www.w3.org/2000/svg" xmlns:xlink="http://www.w3.org/1999/xlink">
    <!-- Generator: sketchtool 39.1 (31720) - http://www.bohemiancoding.com/sketch -->
    <title>B127D300-8E8A-4453-993B-9732861E2CB5</title>
    <desc>Created with sketchtool.</desc>
    <defs>
        <polygon id="path-1" points="0 0.14195 0 45.47495 19.8813 45.47495 19.8813 0.14195 1.01643954e-19 0.14195"></polygon>
        <polygon id="path-3" points="0.13005 45.5 23.4045 45.5 23.4045 0.11675 0.13005 0.11675"></polygon>
    </defs>
    <g id="Home" stroke="none" stroke-width="1" fill="none" fill-rule="evenodd">
        <g id="home" transform="translate(-185.000000, -1102.000000)">
            <g id="Main-part" transform="translate(0.000000, 636.000000)">
                <g id="treasure-island-ben" transform="translate(0.000000, 332.000000)">
                    <g id="climate-control" transform="translate(181.000000, 134.000000)">
                        <g id="Icon_climate" transform="translate(4.000000, 0.000000)">
                            <circle id="Oval" fill="#1F3D9B" cx="51.5" cy="51.5" r="51.5"></circle>
                            <g id="icon-climate" transform="translate(29.000000, 28.000000)">
                                <g id="Page-1">
                                    <g id="Group-3" transform="translate(0.000000, 0.383700)">
                                        <mask id="mask-2" fill="white">
                                            <use xlink:href="#path-1"></use>
                                        </mask>
                                        <g id="Clip-2"></g>
                                        <path d="M19.8813,0.14195 C18.8463,0.14195 18.0063,0.98195 18.0063,2.01695 L18.0063,8.61845 L15.3378,5.37245 C14.8113,4.73645 13.8663,4.63895 13.2258,5.16695 C12.5868,5.69345 12.4938,6.63845 13.0203,7.27895 L18.0063,13.34345 L18.0063,19.56095 L12.6228,16.45295 L9.8628,9.10145 C9.5703,8.32445 8.7078,7.93295 7.9308,8.22395 C7.1568,8.51495 6.7638,9.38045 7.0533,10.15595 L8.5308,14.09045 L2.8128,10.78895 C1.9143,10.27145 0.7713,10.57895 0.2508,11.47595 C-0.2667,12.37145 0.0408,13.51895 0.9378,14.03645 L6.6558,17.33795 L2.5098,18.02645 C1.6923,18.16145 1.1403,18.93395 1.2768,19.75145 C1.3983,20.48645 2.0343,21.00545 2.7543,21.00545 C2.8353,21.00545 2.9178,20.99945 3.0018,20.98595 L10.7463,19.69895 L16.1313,22.80845 L11.2578,25.62245 L3.0633,24.26195 C2.0418,24.08495 1.0758,24.78095 0.9063,25.80395 C0.7353,26.82545 1.4268,27.79145 2.4483,27.95945 L6.1443,28.57295 L0.9378,31.57895 C0.0408,32.09795 -0.2667,33.24395 0.2508,34.14095 C0.5988,34.74245 1.2288,35.07845 1.8768,35.07845 C2.1948,35.07845 2.5173,34.99745 2.8128,34.82645 L8.5308,31.52645 L7.0533,35.46095 C6.7638,36.23645 7.1568,37.10195 7.9308,37.39145 C8.1048,37.45745 8.2833,37.48895 8.4588,37.48895 C9.0648,37.48895 9.6363,37.11695 9.8628,36.51545 L12.6228,29.16395 L18.0063,26.05595 L18.0063,32.27345 L13.0203,38.33795 C12.4938,38.97845 12.5868,39.92345 13.2258,40.44995 C13.5048,40.67795 13.8438,40.79045 14.1768,40.79045 C14.6103,40.79045 15.0393,40.60445 15.3378,40.24295 L18.0063,36.99695 L18.0063,43.59995 C18.0063,44.63495 18.8463,45.47495 19.8813,45.47495 L19.8813,0.14195 Z" id="Fill-1" fill="#FFFFFF" mask="url(#mask-2)"></path>
                                    </g>
                                    <g id="Group-6" transform="translate(21.000000, 0.383700)">
                                        <mask id="mask-4" fill="white">
                                            <use xlink:href="#path-3"></use>
                                        </mask>
                                        <g id="Clip-5"></g>
                                        <path d="M20.18805,23.61725 L23.40555,20.76875 L19.63455,18.70925 C18.27705,17.96675 17.70105,16.31825 18.29955,14.89175 L19.96155,10.93025 L15.67155,10.70975 C14.12655,10.63025 12.89205,9.39425 12.81255,7.85075 L12.59055,3.55925 L8.62905,5.22125 C7.20255,5.82125 5.55555,5.24375 4.81305,3.88625 L2.75205,0.11675 L0.13005,3.07925 L0.13005,8.93975 C8.11155,8.93975 14.58255,15.40925 14.58255,23.39225 C14.58255,31.37375 8.11155,37.84475 0.13005,37.84475 L0.13005,43.70525 L0.35505,43.45025 C1.38105,42.29225 3.11505,42.09575 4.37355,42.99725 L7.86555,45.50075 L9.03555,41.36525 C9.45705,39.87725 10.93605,38.94875 12.46005,39.21425 L16.69155,39.95375 L15.95205,35.72225 C15.68655,34.19825 16.61505,32.71925 18.10305,32.29775 L22.23855,31.12775 L19.73505,27.63575 C18.83355,26.37725 19.03005,24.64325 20.18805,23.61725" id="Fill-4" fill="#FFFFFF" mask="url(#mask-4)"></path>
                                    </g>
                                </g>
                            </g>
                        </g>
                    </g>
                </g>
            </g>
        </g>
    </g>
</svg>