<?xml version="1.0" encoding="UTF-8"?>
<svg width="103px" height="103px" viewBox="0 0 103 103" version="1.1" xmlns="http://www.w3.org/2000/svg" xmlns:xlink="http://www.w3.org/1999/xlink">
    <!-- Generator: sketchtool 39.1 (31720) - http://www.bohemiancoding.com/sketch -->
    <title>D2BB001E-0867-4AE2-B2F5-F7A69C21FBA4</title>
    <desc>Created with sketchtool.</desc>
    <defs></defs>
    <g id="Home" stroke="none" stroke-width="1" fill="none" fill-rule="evenodd">
        <g id="home" transform="translate(-589.000000, -1102.000000)">
            <g id="Main-part" transform="translate(0.000000, 636.000000)">
                <g id="treasure-island-ben" transform="translate(0.000000, 332.000000)">
                    <g id="express-check-in" transform="translate(578.000000, 134.000000)">
                        <g id="icn_express_check" transform="translate(11.000000, 0.000000)">
                            <circle id="Oval" fill="#1F3D9B" cx="51.5" cy="51.5" r="51.5"></circle>
                            <path d="M50.2850966,25 L62.4246328,25 L54.6431293,43.4216517 L65.8318237,43.4216517 L41.6881834,78 L52.1035322,50.2165167 L42.5977532,50.2165167 L50.2850966,25 Z M44.6361893,34.4755167 L45.9174718,30.2717333 C36.7258535,32.92085 30,41.42205 30,51.5 C30,59.8881333 34.6587293,67.1835833 41.520103,70.92185 L42.7731375,67.5810833 C37.3004066,64.4055883 33.520007,58.457045 33.520007,51.5 C33.520007,43.7064383 38.2573205,37.257575 44.6361893,34.4755167 L44.6361893,34.4755167 Z M62.3347847,32.0004167 L60.9557339,35.2652167 C66.476513,38.3421317 70.480081,44.32857 70.480081,51.5 C70.480081,62.3014 61.3251587,70.8594867 50.504833,69.9899333 L48.2230764,73.25915 C61.7270555,75.6026333 74,65.170555 74,51.5 C74,43.0535667 69.2753586,35.71395 62.3347847,32.0004167 L62.3347847,32.0004167 Z" id="icon-bolt" fill="#FFFFFF"></path>
                        </g>
                    </g>
                </g>
            </g>
        </g>
    </g>
</svg>