<?xml version="1.0" encoding="UTF-8"?>
<svg width="103px" height="103px" viewBox="0 0 103 103" version="1.1" xmlns="http://www.w3.org/2000/svg" xmlns:xlink="http://www.w3.org/1999/xlink">
    <!-- Generator: sketchtool 39.1 (31720) - http://www.bohemiancoding.com/sketch -->
    <title>F4E09B8B-3DCE-486B-A2DA-B32F142B8E38</title>
    <desc>Created with sketchtool.</desc>
    <defs>
        <polygon id="path-1" points="66.9999839 0.0445326667 0 0.0445326667 0 28.2540161 66.9999839 28.2540161 66.9999839 0.0445326667"></polygon>
    </defs>
    <g id="Home" stroke="none" stroke-width="1" fill="none" fill-rule="evenodd">
        <g id="home" transform="translate(-383.000000, -1102.000000)">
            <g id="Main-part" transform="translate(0.000000, 636.000000)">
                <g id="treasure-island-ben" transform="translate(0.000000, 332.000000)">
                    <g id="free-moving" transform="translate(383.000000, 134.000000)">
                        <g id="icn_moving_services">
                            <circle id="Oval" fill="#1F3D9B" cx="51.5" cy="51.5" r="51.5"></circle>
                            <g id="icon-moving-services" transform="translate(17.000000, 36.000000)">
                                <path d="M22.1266473,30.8672841 C20.6807873,30.8672841 19.6103953,29.6976875 19.7351046,28.2562048 C19.8595906,26.8126675 21.1321439,25.6441428 22.5777806,25.6441428 C24.0231046,25.6441428 25.0939879,26.8126675 24.9695466,28.2562048 C24.8443013,29.6976875 23.5714799,30.8672841 22.1266473,30.8672841 M22.8087966,22.9660635 C19.8815666,22.9660635 17.3042553,25.3343348 17.0519779,28.2551775 C16.8002366,31.1760201 18.9675973,33.5447828 21.8953186,33.5447828 C24.8217893,33.5447828 27.3999046,31.1760201 27.6521373,28.2562048 C27.9049059,25.3343348 25.7357586,22.9660635 22.8087966,22.9660635" id="Fill-1" fill="#FFFFFF"></path>
                                <g id="Group-5" transform="translate(0.000000, 0.000134)">
                                    <mask id="mask-2" fill="white">
                                        <use xlink:href="#path-1"></use>
                                    </mask>
                                    <g id="Clip-4"></g>
                                    <path d="M51.3193736,15.0310301 L51.8530509,8.86068747 L57.1528849,8.86068747 C57.6548489,8.86068747 58.5309856,9.23561947 58.8560696,9.59116613 L63.8374749,15.0315661 L51.3193736,15.0315661 L51.3193736,15.0310301 Z M65.9992076,14.6657908 L60.2117476,8.34469813 C59.5840023,7.65790347 58.2743756,7.09742613 57.3031883,7.09742613 L52.0043816,7.09742613 L50.2377256,7.09742613 L50.6947549,1.8075528 C50.7775223,0.838107467 50.0506616,0.0445148 49.0804569,0.0445148 L13.7480516,0.0445148 C12.7760603,0.0445148 11.9126983,0.838107467 11.8291269,1.8075528 L11.8007189,2.13420013 L7.23851027,2.13420013 C6.6601216,2.13420013 6.15123427,2.6019048 6.10165427,3.17899813 C6.05185093,3.7551088 6.47944493,4.22361747 7.05832493,4.22361747 L11.6212929,4.22361747 L22.3518343,4.22361747 C22.9296869,4.22361747 23.3583083,4.69154547 23.3087283,5.26841547 C23.2588803,5.84533013 22.7489656,6.31325813 22.1716043,6.31325813 L11.4411076,6.31325813 L3.05051893,6.31325813 C2.4720856,6.31325813 1.96324293,6.78127547 1.91361827,7.3581008 C1.86381493,7.9349708 2.29140893,8.40267547 2.87028893,8.40267547 L11.2601629,8.40267547 L19.3734609,8.40267547 C19.9513583,8.40267547 20.3794436,8.87064813 20.3295956,9.44751813 C20.2800603,10.0243881 19.7701456,10.4923608 19.1927843,10.4923608 L11.0794416,10.4923608 L5.14476027,10.4923608 C4.5663716,10.4923608 4.05748427,10.9603335 4.00790427,11.5371588 C3.95810093,12.1135375 4.38565027,12.5820461 4.96457493,12.5820461 L10.8989883,12.5820461 L23.1998309,12.5820461 C23.7775049,12.5820461 24.2063496,13.0497508 24.1565016,13.6268888 C24.1069216,14.2029548 23.5970516,14.6714188 23.0196903,14.6714188 L10.7188029,14.6714188 L1.14101893,14.6714188 C0.562630267,14.6714188 0.0537876,15.1394361 0.00389493333,15.7162615 C-0.0456850667,16.2931315 0.381908933,16.7611041 0.960342267,16.7611041 L10.5376349,16.7611041 L16.5571829,16.7611041 C17.1350803,16.7611041 17.5639249,17.2290768 17.5140769,17.8056788 C17.4645416,18.3827721 16.9546269,18.8505215 16.3772656,18.8505215 L10.3576729,18.8505215 L9.6974996,26.4904868 C9.61392827,27.4606915 10.3398063,28.2540161 11.3117976,28.2540161 L15.7285716,28.2540161 C16.0427123,24.6088588 19.2707276,21.6425008 22.9237909,21.6425008 C26.5768989,21.6425008 29.2924983,24.6088588 28.9773749,28.2540161 L48.4097869,28.2540161 L50.1763983,28.2540161 C50.4918343,24.6083675 53.7203856,21.6425008 57.3726449,21.6425008 C61.0244576,21.6425008 63.7408609,24.6088588 63.4259609,28.2540161 L64.3092443,28.2540161 C65.2804763,28.2540161 66.1449103,27.4602001 66.2282136,26.4904868 L66.9898696,17.6758328 C67.0737089,16.7061641 66.6269083,15.3525408 65.9992076,14.6657908 L65.9992076,14.6657908 Z" id="Fill-3" fill="#FFFFFF" mask="url(#mask-2)"></path>
                                </g>
                                <path d="M56.5752511,30.8672841 C55.1301505,30.8672841 54.0592671,29.6976875 54.1850038,28.2562048 C54.3097131,26.8126675 55.5825345,25.6441428 57.0276351,25.6441428 C58.4732271,25.6441428 59.5446465,26.8126675 59.4194011,28.2562048 C59.2936645,29.6976875 58.0198158,30.8672841 56.5752511,30.8672841 M57.2581598,22.9660635 C54.3312425,22.9660635 51.7538418,25.3343348 51.5013411,28.2551775 C51.2488405,31.1760201 53.4172285,33.5447828 56.3441905,33.5447828 C59.2711525,33.5447828 61.8489998,31.1760201 62.1010091,28.2562048 C62.3535098,25.3343348 60.1851218,22.9660635 57.2581598,22.9660635" id="Fill-6" fill="#FFFFFF"></path>
                            </g>
                        </g>
                    </g>
                </g>
            </g>
        </g>
    </g>
</svg>