<?xml version="1.0" encoding="UTF-8"?>
<svg width="103px" height="103px" viewBox="0 0 103 103" version="1.1" xmlns="http://www.w3.org/2000/svg" xmlns:xlink="http://www.w3.org/1999/xlink">
    <!-- Generator: sketchtool 39.1 (31720) - http://www.bohemiancoding.com/sketch -->
    <title>425975F1-7AC6-40CB-A500-1C78D73C5A6F</title>
    <desc>Created with sketchtool.</desc>
    <defs>
        <polygon id="path-1" points="20.7321301 24.5142857 0 24.5142857 0 0 41.4642601 0 41.4642601 24.5142857 20.7321301 24.5142857"></polygon>
    </defs>
    <g id="Home" stroke="none" stroke-width="1" fill="none" fill-rule="evenodd">
        <g id="home" transform="translate(-995.000000, -1102.000000)">
            <g id="Main-part" transform="translate(0.000000, 636.000000)">
                <g id="treasure-island-ben" transform="translate(0.000000, 332.000000)">
                    <g id="pormotions" transform="translate(995.000000, 134.000000)">
                        <g id="icn_promotions">
                            <path d="M51.5,103 C79.9426646,103 103,79.9426646 103,51.5 C103,23.0573354 79.9426646,0 51.5,0 C23.0573354,0 0,23.0573354 0,51.5 C0,79.9426646 23.0573354,103 51.5,103 Z" id="Oval" fill="#1F3D9B"></path>
                            <g id="icon-money" transform="translate(31.000000, 30.000000)">
                                <path d="M21.5,0 C15.4560685,0 9.81564583,2.51820446 5.84441667,6.52807768 L2.5450625,3.23639643 C2.37562202,3.06722232 2.12210119,3.01793839 1.90159821,3.10922857 C1.6796875,3.20039107 1.53571429,3.4159125 1.53571429,3.65377768 L1.53571429,13.1997937 C1.53571429,13.5244804 1.79972917,13.7892857 2.12658036,13.7892857 L11.6948482,13.7892857 C11.9332679,13.7892857 12.1492917,13.6456473 12.2406667,13.4256571 C12.3321696,13.2042625 12.2812351,12.9514589 12.1117946,12.7822848 L9.07632738,9.75247232 C12.2077768,6.57889375 16.7399256,4.59642857 21.5,4.59642857 C30.8132113,4.59642857 38.3928571,12.1569152 38.3928571,21.45 C38.3928571,22.4973473 38.2819018,23.5192866 38.0988958,24.5142857 L42.7540298,24.5142857 C42.9010744,23.5103491 43,22.4928786 43,21.45 C43,9.60283304 33.3747827,0 21.5,0" id="Fill-1" fill="#FFFFFF"></path>
                                <g id="Group-5" transform="translate(0.000000, 18.385714)">
                                    <mask id="mask-2" fill="white">
                                        <use xlink:href="#path-1"></use>
                                    </mask>
                                    <g id="Clip-4"></g>
                                    <path d="M40.873394,10.725 L31.3051262,10.725 C31.0651708,10.725 30.849275,10.8686384 30.7593077,11.0886286 C30.666269,11.3100232 30.7173315,11.5628268 30.8883077,11.7320009 L33.9207036,14.7602813 C30.795269,17.9338598 26.2601768,19.9178571 21.4999744,19.9178571 C12.1852274,19.9178571 4.60711726,12.3573705 4.60711726,3.06428571 C4.60711726,2.01693839 4.71666488,0.994999107 4.90107857,0 L0.244408929,0 C0.0990279762,1.00393661 -2.55952382e-05,2.02140714 -2.55952382e-05,3.06428571 C-2.55952382e-05,14.9114527 9.62519167,24.5142857 21.4999744,24.5142857 C27.543906,24.5142857 33.1948226,22.0020821 37.1600369,17.9922089 L40.4535042,21.2778893 C40.6244804,21.4470634 40.8763375,21.4963473 41.0983762,21.4050571 C41.3202869,21.3138946 41.4642601,21.0983732 41.4642601,20.860508 L41.4642601,11.314492 C41.4642601,10.9898054 41.2003732,10.725 40.873394,10.725" id="Fill-3" fill="#FFFFFF" mask="url(#mask-2)"></path>
                                </g>
                                <path d="M22.3518479,7.66071429 L20.6466932,7.66071429 C20.2701872,7.66071429 19.9643241,7.96446161 19.9643241,8.33549554 L19.9643241,10.6457116 C18.4616277,10.7265321 16.9918211,11.4013134 15.9690354,12.2302027 C14.5442765,13.3882473 13.821467,14.8531036 13.821467,17.4176554 C13.821467,20.974142 17.099833,22.3028929 19.3014074,22.9612036 L22.3698926,23.7586839 C23.8516009,24.1521893 25.1293152,24.6205143 25.1293152,26.0749009 C25.1293152,26.8439089 24.7543449,27.409525 24.1875384,27.8045625 C23.5906574,28.217475 22.6967438,28.5241589 21.5239699,28.5241589 C20.1802199,28.5241589 18.5485235,27.9376036 18.0926723,26.5432259 C17.9966902,26.254417 17.7417616,26.0464286 17.4342348,26.0464286 L14.5728152,26.0464286 C14.3777795,26.0464286 14.1904223,26.1301857 14.0628301,26.2738241 C13.9324223,26.4189946 13.8574283,26.6165134 13.8978688,26.804967 C14.493342,29.5895089 17.1103271,31.8158402 19.9643241,32.200408 L19.9643241,34.5645045 C19.9643241,34.9386027 20.2701872,35.2392857 20.6466932,35.2392857 L22.3518479,35.2392857 C22.7297616,35.2392857 23.0357527,34.9386027 23.0357527,34.5645045 L23.0357527,32.2542884 C24.7304134,32.0478321 26.0081277,31.4986866 27.0310414,30.6697973 C28.4556723,29.5117527 29.1786098,27.7700893 29.1786098,25.4823446 C29.1786098,22.0439607 25.9002438,20.5792321 23.6985414,19.9387964 L20.6301842,19.1413161 C19.1484759,18.7478107 17.8706336,18.2405437 17.8706336,16.8250991 C17.8706336,16.0560911 18.2440682,15.490475 18.8125384,15.0955652 C19.4123628,14.682525 20.3032051,14.3758411 21.4759789,14.3758411 C24.1875384,14.3758411 24.7514015,15.7822205 24.9074045,16.3567741 C24.9884134,16.6500518 25.2583152,16.8535714 25.5643063,16.8535714 L28.4257259,16.8535714 C28.6206336,16.8535714 28.8096545,16.7698143 28.935583,16.6261759 C29.0676545,16.4810054 29.1215324,16.2865509 29.1005443,16.095033 C28.9386545,14.5553571 27.0670027,10.6951232 23.0357527,10.699592 L23.0357527,8.33549554 C23.0357527,7.96446161 22.7297616,7.66071429 22.3518479,7.66071429" id="Fill-6" fill="#FFFFFF"></path>
                            </g>
                        </g>
                    </g>
                </g>
            </g>
        </g>
    </g>
</svg>