<?xml version="1.0" encoding="UTF-8"?>
<svg width="103px" height="103px" viewBox="0 0 103 103" version="1.1" xmlns="http://www.w3.org/2000/svg" xmlns:xlink="http://www.w3.org/1999/xlink">
    <!-- Generator: sketchtool 39.1 (31720) - http://www.bohemiancoding.com/sketch -->
    <title>381AD6CC-15AA-4384-BE14-6B233A4C2B87</title>
    <desc>Created with sketchtool.</desc>
    <defs></defs>
    <g id="Home" stroke="none" stroke-width="1" fill="none" fill-rule="evenodd">
        <g id="home" transform="translate(-797.000000, -1102.000000)">
            <g id="Main-part" transform="translate(0.000000, 636.000000)">
                <g id="treasure-island-ben" transform="translate(0.000000, 332.000000)">
                    <g id="variety-of-unit" transform="translate(797.000000, 134.000000)">
                        <g id="icn_variety_of">
                            <circle id="Oval" fill="#1F3D9B" cx="51.5" cy="51.5" r="51.5"></circle>
                            <g id="icon-boxes" transform="translate(14.000000, 28.000000)">
                                <path d="M70.9019875,33.4698693 L45.5332354,41.0468443 L45.5332354,19.6559586 L70.9019875,12.0787512 L70.9019875,33.4698693 Z M44.4321108,17.5153824 L38.4371247,14.8613375 L62.3955101,7.51355225 L68.6049257,10.2773107 L44.4321108,17.5153824 Z M43.1733515,40.8181194 L24.3598839,32.4891883 L24.3598839,11.2159193 L30.8219786,14.0768392 L30.8219786,21.036908 L33.7665018,22.3404536 L36.7112567,23.6439992 L36.7112567,16.6839304 L43.1733515,19.5448504 L43.1733515,40.8181194 Z M50.9978271,2.44069578 L56.4976548,4.88856287 L32.5459921,12.2533166 L28.4377541,10.4346752 L26.6068736,9.62414319 L50.9978271,2.44069578 Z M72.7873447,9.54348514 C72.6371281,9.43098228 72.4646572,9.35799488 72.2850001,9.32661495 L51.5595166,0.101612449 C51.3040557,-0.0118201914 51.0166042,-0.0311130382 50.7481616,0.0479179002 L22.8472864,8.26504349 C22.8405638,8.26690304 22.8345366,8.2703897 22.8280457,8.2724817 C22.7853916,8.285731 22.7436648,8.30200208 22.7024016,8.32013271 C22.6919699,8.32478159 22.6810746,8.32826824 22.6708747,8.33314957 C22.6245115,8.35546418 22.5793075,8.38056813 22.5357261,8.40892629 C22.5327125,8.41101829 22.5301625,8.41334272 22.5271489,8.41520228 C22.5141672,8.4238027 22.5025765,8.43403024 22.4898266,8.44309555 C22.4573724,8.46657239 22.4258455,8.490979 22.3964049,8.51747761 C22.3818005,8.53049447 22.3683552,8.54420866 22.3544462,8.55792285 C22.3284829,8.58325924 22.3039104,8.60975785 22.280497,8.63741868 C22.2677471,8.65252754 22.2554609,8.66763639 22.2434065,8.68321013 C22.2206886,8.7131954 22.1998251,8.74411045 22.1801208,8.77595527 C22.1708482,8.79106412 22.1608801,8.80547565 22.1520711,8.82081695 C22.1261077,8.86753818 22.1024625,8.91542163 22.0827582,8.96516463 C22.0818309,8.96795396 22.0806719,8.97074328 22.0795128,8.97353261 C22.0605039,9.02304317 22.0454359,9.07418084 22.0329178,9.12624828 C22.028977,9.14344913 22.026427,9.16088242 22.0231816,9.17831572 C22.0157635,9.21666897 22.0099681,9.25525466 22.0064908,9.29430524 C22.0057954,9.30406789 22.0030136,9.31336565 22.0023182,9.32336074 C22.0016227,9.33382071 22.0032454,9.3438158 22.0027818,9.35427578 C22.0020863,9.36961708 22,9.38472593 22,9.40029968 L22,33.2602049 C22,33.7288118 22.2758607,34.1532545 22.7033289,34.3424638 L43.8766803,43.7162304 C43.9079754,43.7301771 43.9397342,43.7415668 43.9717248,43.7524917 C43.9770565,43.7543512 43.9819247,43.7566757 43.9872564,43.7583028 C44.0403422,43.7757361 44.0941235,43.7880556 44.1483683,43.7978183 C44.1611182,43.7999103 44.1738681,43.8017698 44.1866179,43.8036294 C44.2420219,43.8115325 44.2974258,43.8171111 44.3530616,43.8171111 L44.3532934,43.8171111 L44.3532934,43.8171111 C44.3648842,43.8171111 44.3767068,43.8147867 44.3882976,43.8145542 C44.4328062,43.8131596 44.4775466,43.8113 44.5220553,43.8047916 C44.5366596,43.8026996 44.5510322,43.7980507 44.5656366,43.7952614 C44.606668,43.7878232 44.648163,43.7801525 44.6884989,43.7682979 C44.6889626,43.7680654 44.6894262,43.7680654 44.6901216,43.767833 L72.4187577,35.4858555 C72.919016,35.3363941 73.2618715,34.8752253 73.2618715,34.351994 L73.2618715,10.4918564 C73.2618715,10.118319 73.0859233,9.76663132 72.7873447,9.54348514 L72.7873447,9.54348514 Z" id="Fill-1-Copy" fill="#FFFFFF"></path>
                                <polygon id="Path-3" fill="#1F3D9B" points="21 16.1828889 34 22.7053819 34 46 20 37.6139375"></polygon>
                                <path d="M33.277467,38.7759153 L16.0142819,43.9319719 L16.0142819,29.3756856 L33.277467,24.2194708 L33.277467,38.7759153 Z M15.2649774,27.9190446 L11.1854487,26.1129933 L27.4888932,21.1128981 L31.7143391,22.9936083 L15.2649774,27.9190446 Z M14.4084042,43.7763269 L1.60602544,38.1085716 L1.60602544,23.6323222 L6.00341703,25.57915 L6.00341703,30.315408 L8.00713593,31.2024579 L10.0110126,32.0895078 L10.0110126,27.3532498 L14.4084042,29.3000775 L14.4084042,43.7763269 Z M19.7328825,17.6608694 L23.4754609,19.3266187 L7.17659114,24.3382608 L4.38097577,23.1006934 L3.1350797,22.5491343 L19.7328825,17.6608694 Z M34.5604339,22.4942473 C34.458213,22.4176902 34.3408483,22.368023 34.2185934,22.3466693 L20.1151067,16.0691463 C19.941268,15.9919565 19.7456601,15.9788279 19.5629876,16.0326077 L0.576717782,21.6242804 C0.572143082,21.6255458 0.568041626,21.6279185 0.563624674,21.629342 C0.534598986,21.6383581 0.506204293,21.6494304 0.478125095,21.6617681 C0.471026422,21.6649316 0.463612252,21.6673042 0.456671326,21.6706259 C0.425121667,21.6858108 0.394360748,21.7028938 0.364704068,21.7221912 C0.36265334,21.7236148 0.360918109,21.7251966 0.358867381,21.726462 C0.350033476,21.7323145 0.342146061,21.7392742 0.333469905,21.7454431 C0.311385143,21.7614188 0.289931374,21.7780273 0.26989734,21.7960593 C0.259959197,21.8049172 0.250809796,21.8142496 0.241344898,21.8235819 C0.223677088,21.8408231 0.206955768,21.8588551 0.19102319,21.8776781 C0.182347034,21.8879595 0.173986374,21.8982409 0.165783462,21.9088387 C0.150324129,21.9292434 0.136126782,21.9502807 0.122718176,21.9719508 C0.116408244,21.9822323 0.109625068,21.9920392 0.103630632,22.0024788 C0.0859628227,22.0342721 0.0698724961,22.0668563 0.0564638907,22.1007059 C0.0558328975,22.102604 0.055044156,22.1045022 0.0542554145,22.1064003 C0.0413200539,22.1400917 0.0310664144,22.1748904 0.0225480063,22.2103218 C0.0198662852,22.2220268 0.0181310539,22.23389 0.0159225777,22.2457531 C0.0108746321,22.2718522 0.00693092463,22.2981093 0.00456470013,22.3246829 C0.00409145524,22.3313263 0.00219847564,22.3376533 0.00172523074,22.3444548 C0.00125198584,22.3515728 0.00235622394,22.3583743 0.00204072734,22.3654922 C0.00156748244,22.3759318 0.000147747748,22.3862133 0.000147747748,22.396811 L0.000147747748,38.6332407 C0.000147747748,38.9521231 0.187868224,39.2409522 0.478756088,39.3697073 L14.8870125,45.7484628 C14.9083085,45.7579534 14.9299201,45.765704 14.9516893,45.7731382 C14.9553175,45.7744036 14.9586302,45.7759854 14.9622585,45.7770926 C14.9983828,45.7889558 15.0349804,45.7973391 15.0718935,45.8039825 C15.0805697,45.8054061 15.0892458,45.8066715 15.097922,45.8079369 C15.1356238,45.8133149 15.1733257,45.8171111 15.2111853,45.8171111 L15.211343,45.8171111 L15.211343,45.8171111 C15.2192304,45.8171111 15.2272756,45.8155294 15.235163,45.8153712 C15.2654507,45.8144221 15.2958961,45.8131567 15.3261838,45.8087278 C15.3361219,45.8073042 15.3459023,45.8041407 15.3558405,45.8022426 C15.3837619,45.797181 15.4119989,45.7919612 15.4394471,45.7838942 C15.4397626,45.783736 15.4400781,45.783736 15.4405513,45.7835778 L34.3096141,40.147774 C34.650035,40.046067 34.8833447,39.7322462 34.8833447,39.3761925 L34.8833447,23.1396046 C34.8833447,22.8854161 34.7636138,22.6460961 34.5604339,22.4942473 L34.5604339,22.4942473 Z" id="Fill-1" fill="#FFFFFF"></path>
                            </g>
                        </g>
                    </g>
                </g>
            </g>
        </g>
    </g>
</svg>