<?xml version="1.0" encoding="UTF-8"?>
<svg width="103px" height="103px" viewBox="0 0 103 103" version="1.1" xmlns="http://www.w3.org/2000/svg" xmlns:xlink="http://www.w3.org/1999/xlink">
    <!-- Generator: sketchtool 40.3 (33839) - http://www.bohemiancoding.com/sketch -->
    <title>51E3BE03-160B-4F3F-9FC6-36CFA394588F</title>
    <desc>Created with sketchtool.</desc>
    <defs></defs>
    <g id="Home" stroke="none" stroke-width="1" fill="none" fill-rule="evenodd">
        <g id="content-page" transform="translate(-922.000000, -776.000000)">
            <g id="main_part" transform="translate(367.000000, 416.000000)">
                <g id="call_to_action" transform="translate(555.000000, 360.000000)">
                    <g id="50%_label">
                        <polygon id="Fill-1" fill="#FF0000" points="51.2442 -0.0003 46.2022 6.5027 39.8412 1.2847 36.3722 8.7457 29.0102 5.0747 27.2892 13.1207 19.2942 11.1807 19.4072 19.4077 11.1802 19.2937 13.1202 27.2897 5.0752 29.0107 8.7462 36.3737 1.2842 39.8417 6.5012 46.2027 0.0002 51.2447 6.5012 56.2857 1.2842 62.6467 8.7462 66.1147 5.0752 73.4787 13.1202 75.1997 11.1802 83.1947 19.4072 83.0817 19.2942 91.3097 27.2892 89.3677 29.0102 97.4147 36.3722 93.7417 39.8412 101.2037 46.2022 95.9857 51.2442 102.4887 56.2852 95.9857 62.6462 101.2037 66.1152 93.7417 73.4782 97.4147 75.1992 89.3677 83.1932 91.3097 83.0812 83.0817 91.3082 83.1947 89.3672 75.1997 97.4132 73.4787 93.7422 66.1147 101.2032 62.6467 95.9842 56.2857 102.4882 51.2447 95.9842 46.2027 101.2032 39.8417 93.7422 36.3737 97.4132 29.0107 89.3672 27.2897 91.3082 19.2937 83.0812 19.4077 83.1932 11.1807 75.1992 13.1207 73.4782 5.0747 66.1152 8.7457 62.6462 1.2847 56.2852 6.5027"></polygon>
                        <g id="Group-14" transform="translate(21.000000, 22.489000)" fill="#FFFFFF">
                            <path d="M29.0664,26.3027 C29.0664,30.2797 27.6724,33.5687 24.8864,36.1707 C22.0994,38.7747 18.6704,40.0747 14.5984,40.0747 C10.8824,40.0747 7.7844,39.0377 5.3024,36.9627 C2.8194,34.8867 1.3284,32.0367 0.8284,28.4137 L8.5434,28.4137 C8.8654,29.7857 9.5974,30.9117 10.7404,31.7907 C11.8834,32.6707 13.1704,33.1107 14.5984,33.1107 C16.4924,33.1107 18.0824,32.4687 19.3674,31.1847 C20.6534,29.9007 21.2964,28.3257 21.2964,26.4617 C21.2964,24.4567 20.6794,22.8727 19.4484,21.7127 C18.2144,20.5517 16.5814,19.9717 14.5454,19.9717 C11.9014,19.9717 9.9724,21.0787 8.7584,23.2957 L2.3814,21.8187 L5.8654,1.3437 L25.4764,1.3437 L25.4764,8.1517 L11.7144,8.1517 L10.3024,15.1767 C11.7984,14.0107 13.7594,13.4277 16.1824,13.4277 C19.8184,13.4277 22.8744,14.6677 25.3504,17.1487 C27.8264,19.6277 29.0664,22.6807 29.0664,26.3027" id="Fill-2"></path>
                            <path d="M38.9775,14.5361 L38.9775,26.8841 C38.9775,28.7141 39.5215,30.2171 40.6125,31.3951 C41.7015,32.5741 43.1575,33.1631 44.9785,33.1631 C48.9435,33.1631 50.9265,30.8061 50.9265,26.0931 L50.9265,14.5361 C50.9265,9.8581 48.9435,7.5171 44.9785,7.5171 C40.9775,7.5171 38.9775,9.8581 38.9775,14.5361 M31.2085,26.1451 L31.2085,14.5361 C31.2085,10.5251 32.4945,7.2011 35.0665,4.5631 C37.6385,1.9251 40.9605,0.6051 45.0325,0.6051 C49.1045,0.6051 52.4185,1.9071 54.9715,4.5101 C57.5255,7.1141 58.8025,10.4201 58.8025,14.4311 L58.8025,26.1981 C58.8025,30.2081 57.5255,33.5241 54.9715,36.1441 C52.4185,38.7651 49.1045,40.0751 45.0325,40.0751 C40.9605,40.0751 37.6385,38.7571 35.0665,36.1181 C32.4945,33.4791 31.2085,30.1551 31.2085,26.1451" id="Fill-4"></path>
                            <path d="M16.2041,55.9697 C16.2041,55.4847 16.0431,55.0787 15.7191,54.7537 C15.3951,54.4287 14.9881,54.2657 14.4961,54.2657 C14.0031,54.2657 13.5881,54.4287 13.2511,54.7537 C12.9131,55.0787 12.7441,55.4847 12.7441,55.9697 C12.7441,56.4267 12.9201,56.8277 13.2711,57.1737 C13.6231,57.5207 14.0311,57.6937 14.4961,57.6937 C14.9731,57.6937 15.3781,57.5237 15.7091,57.1847 C16.0391,56.8457 16.2041,56.4407 16.2041,55.9697 L16.2041,55.9697 Z M14.5171,52.3127 C15.5561,52.3127 16.4361,52.6657 17.1531,53.3717 C17.8711,54.0787 18.2291,54.9447 18.2291,55.9697 C18.2291,56.9667 17.8631,57.8247 17.1331,58.5457 C16.4001,59.2657 15.5291,59.6257 14.5171,59.6257 C13.4901,59.6257 12.6111,59.2697 11.8801,58.5557 C11.1481,57.8427 10.7821,56.9807 10.7821,55.9697 C10.7821,54.9447 11.1441,54.0787 11.8691,53.3717 C12.5931,52.6657 13.4751,52.3127 14.5171,52.3127 L14.5171,52.3127 Z M14.4641,44.2317 L7.2501,59.5007 L5.3191,59.5007 L12.5331,44.2317 L14.4641,44.2317 Z M7.0491,47.7217 C7.0491,47.2237 6.8871,46.8147 6.5631,46.4957 C6.2401,46.1777 5.8251,46.0177 5.3191,46.0177 C4.8121,46.0177 4.3931,46.1777 4.0631,46.4957 C3.7331,46.8147 3.5681,47.2237 3.5681,47.7217 C3.5681,48.2067 3.7361,48.6087 4.0741,48.9267 C4.4121,49.2447 4.8261,49.4047 5.3191,49.4047 C5.8251,49.4047 6.2401,49.2487 6.5631,48.9367 C6.8871,48.6247 7.0491,48.2197 7.0491,47.7217 L7.0491,47.7217 Z M9.0741,47.7217 C9.0741,48.7327 8.7081,49.5917 7.9771,50.2977 C7.2461,51.0037 6.3661,51.3577 5.3401,51.3577 C4.3271,51.3577 3.4551,51.0007 2.7241,50.2867 C1.9921,49.5747 1.6271,48.7187 1.6271,47.7217 C1.6271,46.7247 1.9921,45.8657 2.7241,45.1457 C3.4551,44.4257 4.3271,44.0657 5.3401,44.0657 C6.3661,44.0657 7.2461,44.4217 7.9771,45.1357 C8.7081,45.8487 9.0741,46.7107 9.0741,47.7217 L9.0741,47.7217 Z" id="Fill-6"></path>
                            <path d="M35.3584,51.7939 C35.3584,50.4499 34.8944,49.2899 33.9664,48.3139 C33.0384,47.3379 31.8984,46.8499 30.5484,46.8499 C29.2134,46.8499 28.0774,47.3449 27.1414,48.3349 C26.2074,49.3249 25.7394,50.4849 25.7394,51.8149 C25.7394,53.1579 26.2034,54.3359 27.1314,55.3469 C28.0594,56.3579 29.1994,56.8619 30.5484,56.8619 C31.9554,56.8619 33.1154,56.3579 34.0294,55.3469 C34.9164,54.3769 35.3584,53.1919 35.3584,51.7939 M38.4384,51.8149 C38.4384,54.0029 37.6794,55.8519 36.1604,57.3609 C34.6404,58.8709 32.7714,59.6259 30.5484,59.6259 C28.3544,59.6259 26.4914,58.8639 24.9584,57.3409 C23.4254,55.8169 22.6594,53.9749 22.6594,51.8149 C22.6594,49.6679 23.4324,47.8429 24.9794,46.3399 C26.5264,44.8379 28.3894,44.0859 30.5694,44.0859 C32.7634,44.0859 34.6234,44.8339 36.1494,46.3299 C37.6754,47.8249 38.4384,49.6529 38.4384,51.8149" id="Fill-8"></path>
                            <polygon id="Fill-10" points="48.1211 44.3769 48.1211 47.0569 43.2691 47.0569 43.2691 50.5259 48.0591 50.5259 48.0591 53.2059 43.2691 53.2059 43.2691 59.3349 40.2531 59.3349 40.2531 44.3769"></polygon>
                            <polygon id="Fill-12" points="58.1211 44.3769 58.1211 47.0569 53.2691 47.0569 53.2691 50.5259 58.0581 50.5259 58.0581 53.2059 53.2691 53.2059 53.2691 59.3349 50.2521 59.3349 50.2521 44.3769"></polygon>
                        </g>
                    </g>
                </g>
            </g>
        </g>
    </g>
</svg>